<svg width="50" height="32" viewBox="0 0 50 32" fill="none" xmlns="http://www.w3.org/2000/svg">
<path d="M0.0001297 30.2003C0.0578537 26.3096 0.115944 22.4189 0.173672 18.5286C0.191597 17.3307 0.706123 16.193 1.60036 15.3852C1.65163 15.3389 1.70325 15.292 1.7556 15.2443C2.44403 14.6183 3.28555 13.8262 4.28089 12.799C4.74845 12.3163 5.07437 11.9617 5.32106 11.6781H2.17297C1.4053 11.6781 0.736595 11.1109 0.6717 10.354C0.670982 10.3472 0.67062 10.34 0.669903 10.3332C0.589588 9.24246 1.54765 8.5103 1.80294 8.3156C2.66956 7.65371 3.65558 7.64726 4.2956 7.64296C5.16796 7.63901 5.88184 8.34178 5.88184 9.20482V10.9861C6.89726 9.61034 9.85819 2.61245 10.784 1.55113C11.5323 0.693113 13.2659 0.693115 14.1662 0.693115H34.9813C35.8813 0.693115 37.6152 0.693113 38.3632 1.55113C39.289 2.61281 42.2499 9.61034 43.2653 10.9861V9.20482C43.2653 8.34178 43.9792 7.63865 44.8516 7.64296C45.4912 7.64726 46.4776 7.65336 47.3442 8.3156C47.5992 8.51066 48.5576 9.24246 48.4773 10.3332C48.4769 10.3404 48.4762 10.3472 48.4755 10.354C48.4106 11.1109 47.7419 11.6781 46.9742 11.6781H43.8261C44.0728 11.9621 44.3987 12.3163 44.8663 12.799C45.8613 13.8259 46.7031 14.6179 47.3916 15.2443C47.4439 15.292 47.4959 15.3389 47.5468 15.3852C48.441 16.193 48.9556 17.3307 48.9735 18.5286C49.0312 22.4193 49.0889 26.31 49.147 30.2003C49.1607 31.1103 48.4185 31.8553 47.4988 31.8553H1.64875C0.729065 31.8553 -0.0131378 31.1103 0.000488281 30.2003H0.0001297ZM40.5618 9.3701L37.6988 2.824C37.2735 2.19258 36.5575 1.81359 35.7906 1.81359H13.5821C12.8152 1.81359 12.0992 2.19258 11.6739 2.824L8.59932 9.5813C8.48745 9.82727 8.66851 10.1066 8.93851 10.1044L40.2248 9.88821C40.4905 9.88642 40.6676 9.6132 40.5611 9.36975L40.5618 9.3701ZM22.9992 14.3752H26.2437L25.7364 13.1833H28.0333L28.9228 14.3752H31.096L30.0451 13.1833H28.0333L27.286 12.202H25.2444L25.7364 13.1833H23.4395L23.7697 12.2324H21.7281L21.1426 13.1833H19.1411L18.0798 14.3752H20.3383L21.1422 13.1833H23.4391L22.9985 14.3752H22.9992ZM40.5113 27.2565L41.8161 29.8751C42.01 30.2641 42.4062 30.5097 42.8397 30.5097H46.1266C46.7587 30.5097 47.2711 29.9955 47.2711 29.3612V27.1741C47.2711 26.5398 46.7587 26.0256 46.1266 26.0256H41.2696C40.6396 26.0256 40.2302 26.6907 40.512 27.2562L40.5113 27.2565ZM40.3747 22.2063H42.6436C44.6429 22.2336 46.5755 21.477 47.1753 20.1887C47.2571 20.013 47.5357 19.3935 47.402 18.6193C47.1743 17.3027 45.9491 16.6681 45.8157 16.6018C44.5439 15.9686 43.2062 16.2834 42.4166 16.6018C40.0599 17.5519 39.1459 19.88 39.0179 20.1887C39.0147 20.197 39.0111 20.2049 39.0079 20.2131C38.617 21.1662 39.3352 22.2063 40.3747 22.2063ZM12.8073 30.5097H36.375C37.3976 30.5097 37.8494 29.1601 37.0509 28.4907L36.0086 27.6169C35.4725 27.1676 34.8067 26.9227 34.1201 26.9227H15.0622C14.376 26.9227 13.7098 27.1676 13.1737 27.6169L12.1314 28.4907C11.3329 29.1601 11.7847 30.5097 12.8073 30.5097ZM13.0049 21.1224C14.3623 22.0295 16.0511 22.5244 17.7926 22.5244H31.39C33.1312 22.5244 34.8203 22.0299 36.1774 21.1224C37.0329 20.5505 37.5306 19.6868 37.5306 18.7735C37.5306 18.1894 37.2441 17.6308 36.7371 17.2267C36.38 16.942 35.6887 16.7828 35.1939 16.7828H13.988C13.4932 16.7828 12.8019 16.942 12.4448 17.2267C11.9382 17.6308 11.6513 18.1894 11.6513 18.7735C11.6513 19.6864 12.149 20.5505 13.0045 21.1224H13.0049ZM2.13819 29.3612C2.13819 29.9955 2.65055 30.5097 3.28233 30.5097H6.56918C7.00267 30.5097 7.39888 30.2641 7.59285 29.8751L8.89762 27.2565C9.17945 26.6911 8.76963 26.026 8.14001 26.026H3.28304C2.65091 26.026 2.1389 26.5401 2.1389 27.1744V29.3616L2.13819 29.3612ZM2.2332 20.1884C2.83306 21.4767 4.76566 22.2336 6.76495 22.206H9.03388C10.0733 22.206 10.7915 21.1658 10.4007 20.2128C10.3975 20.2045 10.3939 20.1966 10.3906 20.1884C10.2626 19.8797 9.34869 17.5516 6.99156 16.6014C6.20203 16.283 4.86426 15.9682 3.59283 16.6014C3.45981 16.6677 2.23427 17.3027 2.00659 18.619C1.87285 19.3927 2.15145 20.0127 2.2332 20.1884Z" fill="#1F2124"/>
</svg>
