<?xml version="1.0" encoding="UTF-8"?>
<!DOCTYPE svg PUBLIC "-//W3C//DTD SVG 1.1//EN" "http://www.w3.org/Graphics/SVG/1.1/DTD/svg11.dtd">
<!-- Creator: CorelDRAW -->
<svg xmlns="http://www.w3.org/2000/svg" xml:space="preserve" width="145px" height="99px" version="1.1" style="shape-rendering:geometricPrecision; text-rendering:geometricPrecision; image-rendering:optimizeQuality; fill-rule:evenodd; clip-rule:evenodd"
viewBox="0 0 9.81 6.68"
 xmlns:xlink="http://www.w3.org/1999/xlink"
 xmlns:xodm="http://www.corel.com/coreldraw/odm/2003">
 <defs>
  <style type="text/css">
   <![CDATA[
    .fil1 {fill:black}
    .fil0 {fill:black;fill-rule:nonzero}
   ]]>
  </style>
 </defs>
 <g id="Слой_x0020_1">
  <metadata id="CorelCorpID_0Corel-Layer"/>
  <path class="fil0" d="M1.45 4.07l-1.45 0 0 -0.15c0,-0.04 0.03,-0.07 0.07,-0.07l1.26 0c0.07,0 0.12,0.05 0.12,0.12l0 0.1zm-0.27 -0.62l-1.18 0 0 -0.15c0,-0.04 0.03,-0.07 0.07,-0.07l1.23 0 0 0.11c0,0.06 -0.05,0.11 -0.12,0.11zm-1.18 -0.84l1.43 0 0 0.1c0,0.07 -0.05,0.12 -0.12,0.12l-1.24 0c-0.04,0 -0.07,-0.03 -0.07,-0.07l0 -0.15z"/>
  <path class="fil0" d="M3.12 4.07l-0.2 0c0.16,-0.3 0.59,-1.09 0.74,-1.38 0.03,-0.05 0.08,-0.08 0.14,-0.08l0.16 0c0,0 -0.75,1.41 -0.75,1.41 -0.02,0.03 -0.05,0.05 -0.09,0.05zm-0.37 -0.37l-0.59 -1.09 0.16 0c0.06,0 0.12,0.03 0.15,0.08 0.41,0.78 0.35,0.67 0.37,0.7 0.02,0.04 0.02,0.1 0,0.14l-0.09 0.17z"/>
  <path class="fil0" d="M5.1 2.72l0 1.35 -0.11 0c-0.07,0 -0.12,-0.05 -0.12,-0.11l0 -1.35 0.11 0c0.07,0 0.12,0.05 0.12,0.11z"/>
  <path class="fil0" d="M7.25 3.34c0,-0.28 -0.24,-0.51 -0.54,-0.51 -0.29,0 -0.54,0.23 -0.54,0.51 0,0.28 0.25,0.51 0.54,0.51 0.3,0 0.54,-0.23 0.54,-0.51zm0.23 0c0,0.4 -0.35,0.73 -0.77,0.73 -0.42,0 -0.76,-0.33 -0.76,-0.73 0,-0.4 0.34,-0.73 0.76,-0.73 0.42,0 0.77,0.33 0.77,0.73z"/>
  <path class="fil0" d="M7.99 3.45l0 -0.84 0.22 0c0.02,0 0.05,0.01 0.06,0.03l0.87 1.12 0 -1.04c0,-0.06 0.05,-0.11 0.12,-0.11l0.11 0 0 1.46 -0.21 0c-0.03,0 -0.05,-0.01 -0.07,-0.03l-0.87 -1.12 0 0.42c0,0.06 -0.05,0.11 -0.11,0.11l-0.12 0z"/>
  <path class="fil1" d="M4.99 0.25c1.32,0 2.43,0.78 2.87,1.95 0.05,0.14 0.16,0.12 0.25,0.12l0.06 0c-0.02,-0.05 -0.04,-0.11 -0.06,-0.16 -0.48,-1.26 -1.7,-2.16 -3.12,-2.16 -1.49,0 -2.76,0.98 -3.19,2.32l0.09 0c0.12,0.01 0.17,-0.01 0.22,-0.1 0.45,-1.15 1.56,-1.97 2.88,-1.97z"/>
  <path class="fil1" d="M4.99 6.43c1.32,0 2.43,-0.78 2.87,-1.95 0.05,-0.14 0.16,-0.12 0.25,-0.12l0.06 0c-0.02,0.05 -0.04,0.11 -0.06,0.16 -0.48,1.26 -1.7,2.16 -3.12,2.16 -1.49,0 -2.76,-0.98 -3.19,-2.32l0.09 0c0.12,-0.01 0.17,0.01 0.22,0.1 0.45,1.15 1.56,1.97 2.88,1.97z"/>
  <path class="fil0" d="M9.65 3c-0.03,0 -0.06,-0.01 -0.08,-0.02 -0.03,-0.01 -0.05,-0.03 -0.06,-0.05 -0.01,-0.02 -0.02,-0.05 -0.02,-0.08l0 -0.09c0,-0.03 0.01,-0.06 0.02,-0.08 0.01,-0.02 0.03,-0.04 0.05,-0.05 0.03,-0.02 0.06,-0.02 0.09,-0.02 0.03,0 0.06,0 0.09,0.02 0.02,0.01 0.04,0.03 0.05,0.05 0.01,0.02 0.02,0.05 0.02,0.08l0 0.09c0,0.03 -0.01,0.06 -0.02,0.08 -0.01,0.02 -0.03,0.04 -0.05,0.05 -0.03,0.01 -0.06,0.02 -0.09,0.02zm-0.06 -0.3l0.04 0 0 0.2 -0.04 0 0 -0.2zm0.05 0.13l0.04 -0.02 0.05 0.09 -0.05 0 -0.04 -0.07zm0.01 0.12c0.02,0 0.04,0 0.06,-0.01 0.02,-0.01 0.03,-0.02 0.04,-0.03 0.01,-0.02 0.01,-0.04 0.01,-0.06l0 -0.09c0,-0.02 0,-0.04 -0.01,-0.06 -0.01,-0.01 -0.02,-0.03 -0.04,-0.04 -0.02,0 -0.04,-0.01 -0.06,-0.01 -0.02,0 -0.04,0.01 -0.06,0.01 -0.02,0.01 -0.03,0.03 -0.04,0.04 -0.01,0.02 -0.01,0.04 -0.01,0.06l0 0.09c0,0.02 0,0.04 0.01,0.06 0.01,0.01 0.02,0.02 0.04,0.03 0.02,0.01 0.04,0.01 0.06,0.01zm-0.03 -0.15l0.03 0c0.01,0 0.02,0 0.02,-0.01 0,0 0.01,-0.01 0.01,-0.02 0,-0.01 -0.01,-0.01 -0.01,-0.02 0,0 -0.01,-0.01 -0.02,-0.01l-0.03 0 0 -0.04 0.03 0c0.02,0 0.04,0.01 0.05,0.02 0.02,0.01 0.02,0.03 0.02,0.05 0,0.02 0,0.04 -0.02,0.05 -0.01,0.01 -0.03,0.02 -0.05,0.02l-0.03 0 0 -0.04z"/>
 </g>
</svg>
