<svg width="30" height="30" viewBox="0 0 30 30" fill="none" xmlns="http://www.w3.org/2000/svg">
<path d="M29 25.5926C29 26.531 28.6166 27.3832 27.9999 27.9999C27.3825 28.6173 26.531 29 25.5926 29H4.40736C3.46974 29 2.61749 28.6166 2.00007 27.9999C1.38336 27.3831 1 26.5309 1 25.5926C1 24.655 1.38336 23.8027 2.00013 23.186C2.61755 22.5686 3.46974 22.1852 4.40741 22.1852H25.5926C26.531 22.1852 27.3825 22.5685 27.9999 23.186C28.6166 23.8027 29 24.6549 29 25.5926ZM27.3135 25.5926C27.3135 25.1202 27.1197 24.6901 26.8074 24.3785C26.4951 24.0662 26.065 23.8724 25.5926 23.8724H4.40736C3.93497 23.8724 3.50491 24.0663 3.19259 24.3785C2.88098 24.6909 2.68716 25.1201 2.68716 25.5926C2.68716 26.065 2.88103 26.495 3.19259 26.8074C3.50491 27.1197 3.93497 27.3135 4.40736 27.3135H25.5926C26.065 27.3135 26.495 27.1196 26.8074 26.8074C27.1197 26.495 27.3135 26.065 27.3135 25.5926ZM29 4.40735C29 5.34497 28.6166 6.19722 27.9999 6.81464C27.3825 7.43135 26.531 7.81476 25.5926 7.81476H4.40736C3.46974 7.81476 2.61749 7.4314 2.00007 6.81393C1.38336 6.19722 1 5.34502 1 4.40735C1 3.46897 1.38336 2.61749 2.00013 2.00007C2.61755 1.38336 3.46974 1 4.40736 1H25.5926C26.531 1 27.3825 1.38336 27.9999 2.00012C28.6166 2.61683 29 3.46903 29 4.40735ZM27.3135 4.40735C27.3135 3.93496 27.1197 3.5049 26.8074 3.19258C26.4951 2.88026 26.065 2.68716 25.5926 2.68716H4.40736C3.93497 2.68716 3.50491 2.88103 3.19259 3.19258C2.88098 3.5049 2.68716 3.93496 2.68716 4.40735C2.68716 4.87974 2.88103 5.3098 3.19259 5.62141C3.50491 5.93373 3.93497 6.12754 4.40736 6.12754H25.5926C26.065 6.12754 26.495 5.93368 26.8074 5.62141C27.1197 5.30986 27.3135 4.8798 27.3135 4.40735ZM29 15C29 15.9376 28.6166 16.7898 27.9999 17.4073C27.3825 18.024 26.531 18.4074 25.5926 18.4074H4.40736C3.46974 18.4074 2.61749 18.024 2.00007 17.4073C1.38336 16.7898 1 15.9376 1 15C1 14.0616 1.38336 13.2101 2.00013 12.5927C2.61755 11.976 3.46974 11.5926 4.40741 11.5926H25.5926C26.531 11.5926 27.3825 11.9759 27.9999 12.5927C28.6166 13.2101 29 14.0624 29 15ZM27.3135 15C27.3135 14.5276 27.1197 14.0975 26.8074 13.7852C26.4951 13.4736 26.065 13.2798 25.5926 13.2798H4.40736C3.93497 13.2798 3.50491 13.4736 3.19259 13.7852C2.88098 14.0975 2.68716 14.5276 2.68716 15C2.68716 15.4724 2.88103 15.9024 3.19259 16.214C3.50491 16.5264 3.93497 16.7202 4.40736 16.7202H25.5926C26.065 16.7202 26.495 16.5263 26.8074 16.2147C27.1197 15.9024 27.3135 15.4724 27.3135 15Z" fill="white" stroke="white" stroke-width="0.6"/>
</svg>
