<svg width="60" height="81" viewBox="0 0 60 81" fill="none" xmlns="http://www.w3.org/2000/svg">
<path fill-rule="evenodd" clip-rule="evenodd" d="M30.2301 1.87405L57.7971 29.4545L30.2009 57.0372L2.66087 29.432L30.2323 1.8718L30.2301 1.87405ZM30.2234 0.00224706H30.2683L38.5532 8.23998V3.70541H43.3664V8.05572H47.2539V3.70541H52.2513L52.2468 21.3876C52.2423 21.9269 52.1794 21.9044 52.4513 22.201L57.642 27.376C58.1476 27.8793 59.3228 28.9377 59.6554 29.4343C59.3633 29.8702 53.8782 35.2587 53.0153 36.1216C52.3772 36.7597 52.3345 36.4901 52.3435 37.672L52.348 56.9294C52.3008 57.4619 52.3592 57.1339 52.2513 57.2417C51.548 56.8665 42.6811 47.4625 41.9598 47.1119L30.2076 58.8596L18.4937 47.0985C17.7904 47.4265 8.87625 56.862 8.19314 57.235L8.09427 56.8417C8.08753 56.6777 8.09877 56.4485 8.10101 56.2755C8.13697 50.0489 8.0291 43.6717 8.1055 37.4833C8.11224 36.926 8.1864 36.8833 7.90102 36.5755C6.82917 35.416 1.17556 30.0073 0.789062 29.4343C1.07444 29.0096 6.19325 23.9852 7.01343 23.1627C8.16393 22.0122 8.20887 22.2909 8.19538 21.2909C8.12573 15.5722 8.19314 9.46688 8.19314 3.70316H13.0985V8.05348H17.078V3.70316H21.8912L21.9137 8.26021L30.2211 0L30.2234 0.00224706ZM8.19538 58.4731C8.06506 58.7135 8.1482 58.4529 8.10775 58.7787L8.10326 64.4818L52.2536 64.5245C52.2671 64.5042 52.2783 64.4458 52.2805 64.457L52.3502 63.8706C52.348 62.7852 52.4536 58.9472 52.2513 58.4776L42.0474 48.3051L30.1897 60.1202L18.3566 48.3276L8.19314 58.4709L8.19538 58.4731ZM26.8348 10.7387C26.9629 11.0713 27.064 10.932 27.4909 10.9836C29.0504 11.1679 29.8032 12.2173 30.6076 12.9453C30.8593 13.1745 31.439 13.6442 31.0772 14.1745C30.0009 15.7542 29.12 14.134 28.6369 14.0868C28.0639 14.0307 27.5539 14.5902 27.9965 15.089C28.4055 15.5474 28.8526 15.325 29.2549 15.8306C29.2212 16.2283 29.0639 16.3407 28.7425 16.4935C27.9269 16.5451 27.9448 15.7115 26.8932 15.8014C25.5382 15.916 24.7023 18.7473 27.255 20.6528C31.1289 23.547 41.3373 22.7268 42.3687 31.3578C42.4631 32.1532 42.5081 32.9734 42.4991 33.7891C42.4901 34.5778 42.3553 35.4384 42.3732 36.1777C42.9125 35.5036 44.4787 32.1105 46.1191 32.506C47.8021 32.9127 45.9461 37.2788 45.5281 38.1664C44.5664 40.2157 42.4901 43.3886 40.8632 44.7907L38.733 46.4558C39.8116 46.0918 41.6969 44.6986 42.589 43.9256C43.5147 43.1234 43.9619 42.6515 44.7596 41.7415C45.7663 40.5955 46.6853 39.1843 47.3685 37.7844C49.438 33.5554 49.8987 28.1243 48.2718 23.3245C45.6787 15.671 38.5982 10.6084 30.7851 10.3994C29.9829 10.3769 27.4145 10.4129 26.837 10.7365L26.8348 10.7387ZM20.6554 29.25C19.7947 29.7287 16.8219 29.9848 15.6938 29.9354C14.8152 29.8949 13.9793 29.7444 13.2018 29.5219C12.5682 29.3422 11.5368 28.7602 11.1885 28.695C11.1166 31.8926 11.6379 34.461 12.7704 37.0788C13.4468 38.6428 15.0175 41.1954 16.1972 42.3549C16.4601 42.6133 16.6264 42.7437 16.8601 42.9863C20.5183 46.7816 26.0393 48.7815 31.439 48.4624C30.2571 48.1164 29.0549 48.3883 26.3989 47.3299C13.0648 42.0156 17.7454 29.5601 24.1743 31.4095C26.828 32.1735 27.8752 35.1261 26.3067 37.2698C25.9629 37.7394 25.2618 38.3799 24.4709 38.6023C24.8843 37.8877 26.0214 36.4946 24.5271 35.2272C22.1766 33.2318 18.042 38.0181 23.2305 42.6335C24.6956 43.9368 27.2235 45.2761 29.738 45.7525C32.4862 46.2738 35.7714 45.0267 36.8634 43.5032L28.3808 43.474C28.0302 41.0022 32.2884 41.8313 33.7378 41.7842C33.5558 41.4875 33.2906 41.3235 33.0367 41.0673C32.7423 40.7707 32.6097 40.591 32.3468 40.2764C31.8839 39.7258 31.4862 39.245 31.1132 38.5506C27.637 32.0858 36.6724 30.5219 36.5938 38.2518C37.0117 37.9686 37.369 37.2001 37.5398 36.7485C38.3195 34.6767 38.0903 32.751 36.5848 31.3196C34.6546 29.4837 31.9356 29.3736 28.9178 30.259C27.5224 30.6679 26.2798 30.9848 24.9068 30.3174C23.9136 29.8343 22.9182 28.9197 22.8103 27.4973C22.6934 25.9738 23.5743 24.8615 25.0529 24.8413C25.8011 24.8323 26.4191 25.1761 26.6887 25.5738C27.1921 26.3109 26.8685 26.976 26.7 27.7243C28.183 27.3715 29.0257 25.439 28.0392 23.9492C27.2572 22.7673 25.9652 21.8527 23.8956 22.1628C22.062 22.4392 20.9115 23.2189 20.2958 24.502C19.9565 25.2121 19.8307 26.0997 19.9341 26.9603C20.0666 28.0456 20.4644 28.4928 20.6621 29.2523L20.6554 29.25ZM52.2536 65.8277H8.19763C8.03585 66.0502 8.1055 67.3917 8.1055 67.7512C8.1055 68.4613 8.1055 69.1714 8.1055 69.8792H50.4042C52.9075 69.8792 52.312 70.5286 52.3502 66.5423C52.3525 66.2704 52.3817 66.0008 52.2536 65.8255V65.8277ZM11.366 27.0052C13.7726 27.176 15.8084 26.5895 16.8758 25.248C19.37 22.1089 17.3387 19.6371 21.0553 14.8059C22.0216 13.5498 22.7878 13.0352 23.9136 12.1094C24.2709 11.8151 24.7136 11.6196 24.8484 11.1926C21.6081 11.8465 17.9836 14.5947 15.9163 16.8867C13.7569 19.2821 11.5166 23.6616 11.366 27.0052ZM32.9693 24.0593C30.6548 24.4795 31.857 26.3266 34.0142 25.9221C34.6119 25.8098 35.6118 25.2323 34.9534 24.5222C34.5265 24.0616 33.6973 23.9267 32.9693 24.0593ZM29.9605 25.5266C28.801 26.0839 29.9178 27.14 31.0053 26.6996C32.1109 26.2525 31.0817 24.9874 29.9605 25.5266ZM33.4704 26.7266C32.5086 27.2052 33.3737 28.1602 34.3467 27.8164C34.7377 27.6793 34.9422 27.2209 34.6388 26.8794C34.3917 26.603 33.8277 26.5491 33.4704 26.7266ZM22.8215 80.5258H32.0772V71.6409C32.0772 71.2454 31.7222 71.3645 30.8728 71.3645C30.6593 71.3645 30.5964 71.4297 30.5964 71.6409V79.1371H28.0976V71.3623C27.1404 71.3623 26.709 71.2274 26.709 71.6386V79.1349H24.2102V71.36H22.8215V80.5235V80.5258ZM15.1388 80.5258H16.6196C16.7365 80.0247 17.1499 79.4742 17.3904 78.9843C17.6735 78.4046 19.6869 74.6115 19.9498 74.4183V80.5258H21.3385V71.3623C19.6082 71.3623 20.0464 71.0162 18.2847 74.4183L16.5253 77.5642V71.3623H15.1366V80.5258H15.1388ZM10.9728 79.1371H10.047V76.3597C11.3435 76.3597 12.3614 76.2923 12.3614 77.9327C12.3614 78.6001 11.6873 79.1371 10.9728 79.1371ZM8.65829 80.5258C10.3031 80.5258 12.0424 80.7932 13.0333 79.7191C14.8332 77.7664 13.2131 74.9733 11.3413 74.9733H10.0447V72.8453H13.0985C13.494 72.8453 13.3771 72.4903 13.3771 71.6409C13.3771 71.4274 13.312 71.3645 13.0985 71.3645H8.65604V80.528L8.65829 80.5258ZM46.4202 80.5258H47.8089V76.3597C48.1347 76.5777 49.5571 78.9394 49.9009 79.4517C50.1593 79.8382 50.3773 80.1326 50.5863 80.5258H52.2513C52.0019 80.0562 51.7929 79.7461 51.512 79.3236C51.2357 78.9079 51.0087 78.5282 50.7166 78.0832L49.1054 75.6227L51.4334 72.488C51.6649 72.1802 52.0738 71.7398 52.1592 71.3645H50.4941L47.8089 74.8812V71.3645H46.4202V80.528V80.5258ZM33.5558 80.5258H34.9444V76.3597C35.2793 76.5844 35.4073 76.9552 35.6478 77.3237L37.0365 79.4517C37.2949 79.8382 37.5151 80.1326 37.7218 80.5258H39.3869C38.9262 79.6539 38.351 78.9529 37.8432 78.09L36.241 75.6205C36.4635 75.2002 36.7106 74.9598 36.9825 74.6048C37.2522 74.252 37.4881 73.9284 37.7757 73.5464C38.0948 73.1195 39.2026 71.7645 39.297 71.3645C37.1982 71.3645 37.8948 71.0162 35.8455 73.7442C35.6365 74.0205 35.1579 74.7261 34.9467 74.8812V71.3645H33.558V80.528L33.5558 80.5258ZM40.2206 71.6409V80.5258H44.663V79.1371H41.7014V76.3597H44.2001V74.9711H41.7014V72.8431H44.663V71.3623H40.4969C40.2835 71.3623 40.2183 71.4274 40.2183 71.6386L40.2206 71.6409Z" fill="white"/>
</svg>
