<svg width="55" height="54" viewBox="0 0 55 54" fill="none" xmlns="http://www.w3.org/2000/svg">
<path fill-rule="evenodd" clip-rule="evenodd" d="M27.5 0.000105468C42.6877 0.000105468 55 12.089 55 26.9997C55 41.9105 42.6877 54 27.5 54C12.3123 54 0 41.9109 0 26.9996C0 12.0883 12.3121 0.000105468 27.5 0.000105468ZM27.5011 24.9911C28.1907 24.9911 28.8649 24.7903 29.4383 24.4141C30.0117 24.038 30.4587 23.5033 30.7226 22.8777C30.9865 22.2522 31.0555 21.5638 30.921 20.8997C30.7864 20.2356 30.4543 19.6256 29.9667 19.1468C29.479 18.6681 28.8577 18.342 28.1813 18.2099C27.5049 18.0779 26.8038 18.1457 26.1666 18.4048C25.5295 18.6639 24.9849 19.1027 24.6018 19.6657C24.2186 20.2287 24.0141 20.8906 24.0142 21.5677C24.0153 22.4753 24.3831 23.3454 25.0367 23.9872C25.6904 24.629 26.5767 24.99 27.5011 24.9911ZM27.5011 16.0017C26.3799 16.0018 25.2839 16.3282 24.3517 16.9398C23.4195 17.5514 22.6929 18.4206 22.2639 19.4376C21.8349 20.4546 21.7226 21.5736 21.9414 22.6533C22.1601 23.7329 22.7 24.7246 23.4928 25.503C24.2855 26.2813 25.2956 26.8114 26.3952 27.0262C27.4949 27.241 28.6347 27.1308 29.6705 26.7096C30.7063 26.2883 31.5917 25.575 32.2146 24.6598C32.8376 23.7446 33.1701 22.6685 33.1702 21.5677C33.1686 20.092 32.5708 18.6772 31.508 17.6337C30.4452 16.5902 29.0041 16.0033 27.5011 16.0017ZM27.4815 36.8911L34.2616 28.3693C37.8575 23.8497 37.8939 18.2632 34.3499 14.7839C32.524 13.0032 30.0549 12.0038 27.4814 12.0038C24.9078 12.0038 22.4387 13.0032 20.6129 14.7839C16.6613 18.6635 17.6662 24.5547 20.7012 28.3693L27.4815 36.8911ZM35.268 38.6313C35.268 37.4945 33.59 36.311 31.1942 35.7043L28.3412 39.2902C28.2392 39.4184 28.1087 39.5222 27.9598 39.5936C27.8108 39.6649 27.6472 39.702 27.4814 39.702C27.3156 39.702 27.1521 39.6649 27.0031 39.5936C26.8541 39.5222 26.7236 39.4184 26.6216 39.2902L23.7685 35.7043C21.373 36.3107 19.6948 37.4945 19.6948 38.6313C19.6948 39.3816 20.4253 40.177 21.6988 40.8126C23.2253 41.5764 25.2787 41.9958 27.4815 41.9958C29.6843 41.9958 31.7375 41.5764 33.2639 40.8126C34.5375 40.177 35.268 39.3816 35.268 38.6313ZM39.1597 21.3776C39.2396 18.2499 38.1101 15.4462 35.8929 13.2697C33.6581 11.0867 30.6339 9.8612 27.4814 9.8612C24.329 9.8612 21.3047 11.0867 19.07 13.2697C14.2222 18.0289 15.3562 25.1319 18.9816 29.6883L22.3224 33.8874C21.3231 34.1946 20.3792 34.6543 19.5254 35.2495C18.2087 36.2022 17.5126 37.3711 17.5126 38.6313C17.5126 40.2392 18.6476 41.6926 20.7089 42.7223C22.536 43.6353 24.9413 44.1384 27.4813 44.1384C30.0213 44.1384 32.4264 43.6353 34.2534 42.7223C36.3145 41.6926 37.4497 40.2392 37.4497 38.6313C37.4497 37.3711 36.7537 36.2022 35.437 35.2495C34.5831 34.6544 33.6393 34.1948 32.64 33.8876L35.9809 29.6885C37.9574 27.205 39.0862 24.2529 39.1597 21.3776Z" fill="#145BA6"/>
</svg>
