<svg width="17" height="17" viewBox="0 0 17 17" fill="none" xmlns="http://www.w3.org/2000/svg">
<path d="M7.29208 14.058L12.8975 8.44972L7.29208 2.84143C7.01802 2.52724 6.87348 2.12072 6.88767 1.70404C6.90187 1.28737 7.07374 0.891624 7.36855 0.596819C7.66335 0.302014 8.0591 0.13014 8.47577 0.115945C8.89245 0.10175 9.29897 0.246292 9.61315 0.520351L16.3849 7.28919C16.6918 7.59747 16.864 8.01475 16.864 8.44972C16.864 8.8847 16.6918 9.30197 16.3849 9.61026L9.61316 16.382C9.29897 16.6561 8.89245 16.8006 8.47577 16.7864C8.0591 16.7722 7.66335 16.6003 7.36855 16.3055C7.07374 16.0107 6.90187 15.615 6.88767 15.1983C6.87348 14.7816 7.01802 14.3751 7.29208 14.0609L7.29208 14.058Z" fill="white"/>
<path d="M9.61314 7.28917C9.91791 7.59856 10.0887 8.01542 10.0887 8.4497C10.0887 8.88399 9.91791 9.30085 9.61314 9.61024L2.84431 16.382C2.53317 16.673 2.1211 16.8318 1.69511 16.8247C1.26911 16.8176 0.86256 16.6452 0.561297 16.3439C0.260035 16.0427 0.08765 15.6361 0.0805477 15.2101C0.0734454 14.7841 0.232182 14.372 0.523234 14.0609L6.13153 8.4497L0.520332 2.84141C0.35948 2.69094 0.230541 2.50965 0.14119 2.30833C0.0518381 2.107 0.00390004 1.88976 0.000228279 1.66954C-0.00344349 1.44931 0.0372261 1.23059 0.119817 1.0264C0.202407 0.822212 0.325231 0.636725 0.480978 0.480978C0.636725 0.325231 0.822212 0.202407 1.0264 0.119817C1.23059 0.037226 1.44931 -0.00344361 1.66954 0.000228133C1.88976 0.00389988 2.107 0.0518379 2.30833 0.141189C2.50965 0.230541 2.69094 0.359479 2.84141 0.520332L9.61314 7.28917Z" fill="white" fill-opacity="0.5"/>
</svg>
